<?xml version="1.0" encoding="UTF-8" standalone="no"?>
<svg
   xmlns:dc="http://purl.org/dc/elements/1.1/"
   xmlns:cc="http://creativecommons.org/ns#"
   xmlns:rdf="http://www.w3.org/1999/02/22-rdf-syntax-ns#"
   xmlns:svg="http://www.w3.org/2000/svg"
   xmlns="http://www.w3.org/2000/svg"
   xmlns:sodipodi="http://sodipodi.sourceforge.net/DTD/sodipodi-0.dtd"
   xmlns:inkscape="http://www.inkscape.org/namespaces/inkscape"
   height="24"
   width="24"
   id="svg2"
   version="1.1"
   inkscape:version="0.91 r13725"
   sodipodi:docname="mActionZoomFullExtent.svg"
   inkscape:export-filename="/home/hdus/dev/qgis/pgversion-plugin/pgversion/icons/mActionZoomFullExtent.png"
   inkscape:export-xdpi="90.000076"
   inkscape:export-ydpi="90.000076">
  <metadata
     id="metadata26">
    <rdf:RDF>
      <cc:Work
         rdf:about="">
        <dc:format>image/svg+xml</dc:format>
        <dc:type
           rdf:resource="http://purl.org/dc/dcmitype/StillImage" />
      </cc:Work>
    </rdf:RDF>
  </metadata>
  <defs
     id="defs24" />
  <sodipodi:namedview
     pagecolor="#ffffff"
     bordercolor="#666666"
     borderopacity="1"
     objecttolerance="10"
     gridtolerance="10"
     guidetolerance="10"
     inkscape:pageopacity="0"
     inkscape:pageshadow="2"
     inkscape:window-width="1105"
     inkscape:window-height="648"
     id="namedview22"
     showgrid="false"
     inkscape:zoom="9.8333333"
     inkscape:cx="12"
     inkscape:cy="12"
     inkscape:window-x="154"
     inkscape:window-y="140"
     inkscape:window-maximized="0"
     inkscape:current-layer="svg2" />
  <g
     transform="translate(0 -8)"
     id="g4">
    <path
       d="m17.96122 7c0 3.354712-2.668929 6.074244-5.96122 6.074244-3.292291 0-5.9612203-2.719532-5.9612203-6.074244 0-3.3547121 2.6689293-6.07424355 5.9612203-6.07424355 3.292291 0 5.96122 2.71953145 5.96122 6.07424355z"
       style="opacity:.8;fill:#e6e6e6;stroke:#505050;stroke-width:.75218332;stroke-linecap:round;stroke-linejoin:round;stroke-dashoffset:7"
       transform="matrix(1.3420071 0 0 1.3170365 -1.6040853 8.2791092)"
       id="path6" />
    <path
       d="m23.5 27.918h-7.777832l2.59261-2.592609-2.59261-2.592609 2.592607-2.59261 2.592613 2.59261 2.592609-2.59261z"
       fill="#6d97c4"
       fill-rule="evenodd"
       stroke="#415a75"
       stroke-linejoin="round"
       id="path8" />
    <path
       d="m7.5000001 22.5c0 2 2 2 2 2 0 0-7 7-7 7l-2.00000001-2z"
       fill="#ffcc30"
       fill-rule="evenodd"
       stroke="#505050"
       stroke-linejoin="round"
       id="path10" />
    <path
       d="m6.0000001 24l2-2 1.9999999 2-1.9999999 2z"
       fill-rule="evenodd"
       stroke="#505050"
       stroke-linejoin="round"
       id="path12" />
    <path
       d="m10 13c2-3 4.442248-3.398055 6-2 1.557752 1.398055-2 1-4 3-2 2 0 6-2 6-1.9999999 0-1.9999999-4 0-7z"
       fill="#fcffff"
       fill-rule="evenodd"
       opacity=".7"
       id="path14" />
    <path
       d="m2.0000001 29l4-4"
       opacity=".5"
       overflow="visible"
       stroke="#fcffff"
       stroke-linecap="round"
       stroke-linejoin="round"
       id="path16" />
    <path
       d="m23.499999 8.5l.000001 7.777834-2.592612-2.592614-2.59261 2.592614-2.59261-2.592612 2.59261-2.59261-2.59261-2.5926114z"
       fill="#6d97c4"
       fill-rule="evenodd"
       stroke="#415a75"
       stroke-linejoin="round"
       id="path18" />
    <path
       d="m4.082 8.5h7.777832l-2.592612 2.59261 2.592612 2.59261-2.592611 2.59261-2.5926105-2.59261-2.5926102 2.59261z"
       fill="#6d97c4"
       fill-rule="evenodd"
       stroke="#415a75"
       stroke-linejoin="round"
       id="path20" />
  </g>
</svg>
