<?xml version="1.0" encoding="UTF-8" standalone="no"?>
<svg
   xmlns:dc="http://purl.org/dc/elements/1.1/"
   xmlns:cc="http://creativecommons.org/ns#"
   xmlns:rdf="http://www.w3.org/1999/02/22-rdf-syntax-ns#"
   xmlns:svg="http://www.w3.org/2000/svg"
   xmlns="http://www.w3.org/2000/svg"
   xmlns:sodipodi="http://sodipodi.sourceforge.net/DTD/sodipodi-0.dtd"
   xmlns:inkscape="http://www.inkscape.org/namespaces/inkscape"
   height="24"
   width="24"
   id="svg2"
   version="1.1"
   inkscape:version="0.91 r13725"
   sodipodi:docname="mActionZoomOut.svg"
   inkscape:export-filename="/home/hdus/dev/qgis/pgversion-plugin/pgversion/icons/mActionZoomOut.png"
   inkscape:export-xdpi="93.893875"
   inkscape:export-ydpi="93.893875">
  <metadata
     id="metadata28">
    <rdf:RDF>
      <cc:Work
         rdf:about="">
        <dc:format>image/svg+xml</dc:format>
        <dc:type
           rdf:resource="http://purl.org/dc/dcmitype/StillImage" />
      </cc:Work>
    </rdf:RDF>
  </metadata>
  <defs
     id="defs26" />
  <sodipodi:namedview
     pagecolor="#ffffff"
     bordercolor="#666666"
     borderopacity="1"
     objecttolerance="10"
     gridtolerance="10"
     guidetolerance="10"
     inkscape:pageopacity="0"
     inkscape:pageshadow="2"
     inkscape:window-width="1091"
     inkscape:window-height="644"
     id="namedview24"
     showgrid="false"
     inkscape:zoom="9.8333333"
     inkscape:cx="12"
     inkscape:cy="12"
     inkscape:window-x="75"
     inkscape:window-y="34"
     inkscape:window-maximized="0"
     inkscape:current-layer="svg2" />
  <g
     transform="translate(0 -8)"
     id="g4">
    <path
       d="m17.96122 7c0 3.354712-2.668929 6.074244-5.96122 6.074244-3.292291 0-5.9612203-2.719532-5.9612203-6.074244 0-3.3547121 2.6689293-6.07424355 5.9612203-6.07424355 3.292291 0 5.96122 2.71953145 5.96122 6.07424355z"
       style="opacity:.8;fill:#e6e6e6;stroke:#505050;stroke-width:.75218332;stroke-linecap:round;stroke-linejoin:round;stroke-dashoffset:7"
       transform="matrix(1.3420071 0 0 1.3170365 -1.6040853 8.2791092)"
       id="path6" />
    <path
       d="m10 13c2-3 4.442248-3.398055 6-2 1.557752 1.398055-2 1-4 3-2 2 0 6-2 6-1.9999999 0-1.9999999-4 0-7z"
       fill="#fcffff"
       fill-rule="evenodd"
       opacity=".7"
       id="path8" />
    <path
       d="m2.0000001 29l4-4"
       opacity=".5"
       overflow="visible"
       stroke="#fcffff"
       stroke-linecap="round"
       stroke-linejoin="round"
       id="path10" />
    <path
       d="m10.5 17.5l8 0"
       style="fill:none;stroke:#000;stroke-width:2.9000001;stroke-linecap:round;stroke-linejoin:round;overflow:visible"
       id="path12" />
    <path
       d="m10.5 17.5l8 0"
       style="fill:none;stroke:#6d97c4;stroke-width:2.5;stroke-linecap:round;stroke-linejoin:round;overflow:visible"
       id="path14" />
    <g
       stroke-linejoin="round"
       transform="translate(8.7360334 4.906424)"
       id="g16">
      <path
         d="m-1.2360334 17.593576c0 2 2.00000001 2 2.00000001 2 0 0-7.00000001 7-7.00000001 7l-2-2z"
         fill="#ffcc30"
         fill-rule="evenodd"
         stroke="#505050"
         id="path18" />
      <path
         d="m-2.7360334 19.093576l2.00000001-2 1.99999989 2-1.99999989 2z"
         fill-rule="evenodd"
         stroke="#505050"
         id="path20" />
      <path
         d="m-6.7360334 24.093576l4-4"
         opacity=".5"
         overflow="visible"
         stroke="#fcffff"
         stroke-linecap="round"
         id="path22" />
    </g>
  </g>
</svg>
