<?xml version="1.0" encoding="UTF-8" standalone="no"?>
<!-- Created with Inkscape (http://www.inkscape.org/) -->

<svg
   version="1.1"
   width="32"
   height="32"
   id="svg5692"
   inkscape:version="1.1.2 (0a00cf5339, 2022-02-04)"
   sodipodi:docname="pgversion-incremental_update.svg"
   inkscape:export-filename="/home/hdus/dev/qgis/pgversion-plugin/pgversion/icons/pgversion-incremental_update.png"
   inkscape:export-xdpi="89.719742"
   inkscape:export-ydpi="89.719742"
   sodipodi:version="0.32"
   xmlns:inkscape="http://www.inkscape.org/namespaces/inkscape"
   xmlns:sodipodi="http://sodipodi.sourceforge.net/DTD/sodipodi-0.dtd"
   xmlns="http://www.w3.org/2000/svg"
   xmlns:svg="http://www.w3.org/2000/svg"
   xmlns:rdf="http://www.w3.org/1999/02/22-rdf-syntax-ns#"
   xmlns:cc="http://creativecommons.org/ns#"
   xmlns:dc="http://purl.org/dc/elements/1.1/">
  <metadata
     id="metadata27">
    <rdf:RDF>
      <cc:Work
         rdf:about="">
        <dc:format>image/svg+xml</dc:format>
        <dc:type
           rdf:resource="http://purl.org/dc/dcmitype/StillImage" />
        <dc:title>PgVersion commit</dc:title>
      </cc:Work>
      <cc:Work
         rdf:about="">
        <dc:format>image/svg+xml</dc:format>
        <dc:type
           rdf:resource="http://purl.org/dc/dcmitype/StillImage" />
      </cc:Work>
    </rdf:RDF>
  </metadata>
  <sodipodi:namedview
     pagecolor="#ffffff"
     bordercolor="#666666"
     borderopacity="1"
     objecttolerance="10"
     gridtolerance="10"
     guidetolerance="10"
     inkscape:pageopacity="0"
     inkscape:pageshadow="2"
     inkscape:window-width="1280"
     inkscape:window-height="973"
     id="namedview25"
     showgrid="false"
     inkscape:zoom="12.191848"
     inkscape:cx="18.331921"
     inkscape:cy="26.083002"
     inkscape:window-x="480"
     inkscape:window-y="66"
     inkscape:window-maximized="0"
     inkscape:current-layer="svg5692"
     inkscape:pagecheckerboard="0" />
  <title
     id="title3096">PgVersion commit</title>
  <defs
     id="defs5694">
    <inkscape:perspective
       sodipodi:type="inkscape:persp3d"
       inkscape:vp_x="0 : 16 : 1"
       inkscape:vp_y="0 : 1000 : 0"
       inkscape:vp_z="32 : 16 : 1"
       inkscape:persp3d-origin="16 : 10.666667 : 1"
       id="perspective29" />
  </defs>
  <g
     id="layer2"
     style="display:inline"
     transform="matrix(1.2230874,0,0,1.2230874,-7.0829208,-5.9086353)">
    <path
       d="m 6.5,17.5 c 6.811881,2.891089 15.514851,2.376238 19,0 v 5 l -10,2 -9,-2 z"
       id="path14788"
       style="color:#000000;display:inline;overflow:visible;visibility:visible;fill:#ce5c00;fill-opacity:1;fill-rule:nonzero;stroke:none;stroke-width:1;marker:none;enable-background:accumulate" />
    <path
       d="m 6.5,7.5 c 6.811881,2.891089 15.514851,2.376238 19,0 v 5 l -10,2 -9,-2 z"
       id="path3121"
       style="color:#000000;display:inline;overflow:visible;visibility:visible;fill:#fcaf3e;fill-opacity:1;fill-rule:nonzero;stroke:none;stroke-width:1;marker:none;enable-background:accumulate" />
    <path
       d="m 25.5,7.5 a 9.5,2 0 1 1 -19,0 9.5,2 0 1 1 19,0 z"
       id="path14757"
       style="color:#000000;display:inline;overflow:visible;visibility:visible;fill:#fcaf3e;fill-opacity:1;fill-rule:nonzero;stroke:#888a85;stroke-width:1;stroke-linecap:square;stroke-linejoin:round;stroke-miterlimit:4;stroke-dasharray:none;stroke-dashoffset:0;stroke-opacity:1;marker:none;enable-background:accumulate" />
    <path
       d="m 6.5,12.5 c 6.811881,2.891089 15.514851,2.376238 19,0 v 5 l -10,1 -9,-1 z"
       id="path3119"
       style="color:#000000;display:inline;overflow:visible;visibility:visible;fill:#f57900;fill-opacity:1;fill-rule:nonzero;stroke:none;stroke-width:1;marker:none;enable-background:accumulate" />
    <path
       d="m 6.5,7.5 v 15"
       id="path14767"
       style="color:#000000;display:inline;overflow:visible;visibility:visible;fill:#729fcf;fill-opacity:0.784314;fill-rule:nonzero;stroke:#888a85;stroke-width:1;stroke-linecap:round;stroke-linejoin:round;stroke-miterlimit:4;stroke-dasharray:none;stroke-dashoffset:0;stroke-opacity:1;marker:none;enable-background:accumulate" />
    <path
       d="m 25.5,7.5 v 15"
       id="path14786"
       style="color:#000000;display:inline;overflow:visible;visibility:visible;fill:#729fcf;fill-opacity:0.784314;fill-rule:nonzero;stroke:#888a85;stroke-width:1;stroke-linecap:round;stroke-linejoin:round;stroke-miterlimit:4;stroke-dasharray:none;stroke-dashoffset:0;stroke-opacity:1;marker:none;enable-background:accumulate" />
    <path
       d="m 6.5,12.5 c 6,3 13,3 19,0"
       id="path14836"
       style="fill:#fcaf3e;stroke:#888a85;stroke-width:1px;stroke-linecap:round;stroke-linejoin:round;stroke-opacity:1" />
    <path
       d="m 6.5,17.5 c 6,3 13,3 19,0"
       id="path14838"
       style="fill:#f57900;stroke:#888a85;stroke-width:1px;stroke-linecap:round;stroke-linejoin:round;stroke-opacity:1" />
    <path
       d="m 6.5,22.5 c 6,3 13,3 19,0"
       id="path14840"
       style="fill:#ce5c00;stroke:#888a85;stroke-width:1px;stroke-linecap:round;stroke-linejoin:round;stroke-opacity:1" />
    <path
       d="m 6.0695622,7.165215 c 0,0 -0.047827,13.573917 -0.047827,15.573917 3.5251728,2.182423 5.6326868,2.009567 5.6326868,2.009567 L 11.615088,9.1020812 C 10.475651,8.1212712 11.619842,6.1996533 17.452174,5.117389 15.409649,4.992041 7.0102811,4.640104 6.0695622,7.165215 Z"
       id="path13973-2"
       style="display:inline;opacity:0.2;fill:#fcffff;fill-rule:evenodd;stroke:none" />
  </g>
  <path
     d="m 26.709018,19.849189 4.613236,1.988432 c 0.286273,0.123797 0.419738,0.456486 0.295944,0.744695 -0.06191,0.145069 -0.179887,0.251453 -0.315287,0.303679 l -4.485577,1.816281 4.50492,1.94201 c 0.286273,0.123797 0.419738,0.456486 0.295944,0.74276 -0.06191,0.14507 -0.179887,0.251454 -0.315287,0.30368 l -11.31936,4.582291 c -0.141196,0.05801 -0.294008,0.05224 -0.425538,0 L 8.2521942,27.677185 C 7.9620534,27.559194 7.8227841,27.230369 7.9407766,26.940229 8.0045973,26.781619 8.1322681,26.669431 8.2812071,26.617206 L 12.72423,24.690671 8.2521942,22.872455 C 7.9620534,22.754464 7.8227841,22.425638 7.9407766,22.135497 8.0045973,21.976886 8.1322681,21.8647 8.2812071,21.812474 L 12.832549,19.837582 8.2521942,17.976813 C 7.9620534,17.858822 7.8227841,17.529996 7.9407766,17.239856 8.0045973,17.081245 8.1322681,16.969058 8.2812071,16.916832 L 19.507722,12.046335 c 0.148938,-0.06382 0.309483,-0.05997 0.446817,0 v -0.002 l 11.367715,4.897576 c 0.286273,0.123797 0.419738,0.456488 0.295944,0.742761 -0.06191,0.145071 -0.179887,0.251455 -0.315287,0.303681 z m 2.922683,2.493277 -4.3966,-1.893653 -5.249614,2.123829 c -0.141197,0.05804 -0.294009,0.05224 -0.42554,0 l -5.263153,-2.139303 -4.3733893,1.895585 9.8493133,4.003944 z m -4.288281,2.955566 -5.357933,2.168318 c -0.141197,0.05802 -0.294009,0.05222 -0.42554,0 l -5.371472,-2.181859 -4.2650703,1.849165 9.8493133,4.00201 9.858983,-3.990405 z m -5.613256,-12.118213 -9.8067593,4.253464 9.8493133,4.002008 9.858983,-3.990402 z"
     id="path149"
     style="stroke-width:0.193426" />
  <path
     style="fill:#cccccc;stroke:#000000;stroke-width:0.0996704;stroke-opacity:1"
     d="m 14.926882,19.420212 c -2.603892,-1.063514 -4.767383,-1.945601 -4.807761,-1.960197 -0.08801,-0.03183 9.498476,-4.197863 9.641779,-4.190074 0.08842,0.0048 9.627348,4.097569 9.695306,4.159857 0.03716,0.03406 -9.623333,3.942793 -9.718911,3.932368 -0.04184,-0.0046 -2.206522,-0.878441 -4.810413,-1.941954 z"
     id="path197" />
  <path
     style="fill:#cccccc;stroke:#000000;stroke-width:0.0996704;stroke-opacity:1"
     d="m 14.976717,29.143347 c -2.521663,-1.032024 -4.645846,-1.914559 -4.720411,-1.961192 -0.09233,-0.05773 0.513552,-0.365052 1.899855,-0.963607 l 2.035422,-0.878825 2.725009,1.105155 c 1.498756,0.607834 2.786768,1.105153 2.862252,1.105153 0.07549,0 1.356109,-0.494322 2.845835,-1.098494 l 2.708589,-1.098495 2.022917,0.866174 c 1.112602,0.476395 2.022541,0.892228 2.022083,0.924071 -0.0012,0.08477 -9.490701,3.90102 -9.667202,3.887726 -0.08224,-0.0064 -2.212685,-0.855644 -4.734349,-1.887666 z"
     id="path273" />
  <path
     style="fill:#ff0000;stroke:#000000;stroke-width:0.0996704;stroke-opacity:1"
     d="m 15.026553,24.356583 c -2.549072,-1.038227 -4.711032,-1.921788 -4.804357,-1.963468 -0.121208,-0.05413 0.439362,-0.337813 1.961822,-0.992823 l 2.131499,-0.917038 2.666614,1.091462 c 1.466635,0.600303 2.715797,1.091462 2.775912,1.091462 0.08806,0 1.671904,-0.625532 5.285391,-2.08743 0.147689,-0.05975 0.749161,0.157636 2.321276,0.838961 l 2.121934,0.919608 -0.527206,0.220181 c -2.044909,0.854022 -9.131382,3.695855 -9.205964,3.691793 -0.05075,-0.0027 -2.177849,-0.854482 -4.726921,-1.892708 z"
     id="path312" />
  <path
     style="fill:#b3b3b3;stroke:#000000;stroke-width:0.0996704;stroke-opacity:1"
     d="m 15.00379,19.351923 -4.65744,-1.902484 0.421444,-0.192401 c 1.010465,-0.461305 8.140105,-3.547503 8.562521,-3.706449 l 0.466451,-0.175513 2.972181,1.268982 c 5.248748,2.240966 6.410813,2.760756 6.410813,2.867542 0,0.05753 -0.0253,0.07931 -0.05625,0.04835 -0.03094,-0.03094 -1.096173,0.368636 -2.367175,0.887951 -3.209396,1.311316 -6.657514,2.68758 -6.895753,2.752332 -0.125166,0.03404 -1.932324,-0.653714 -4.856782,-1.848307 z"
     id="path388" />
  <path
     style="fill:#b3b3b3;stroke:#000000;stroke-width:0.0996704;stroke-opacity:1"
     d="m 16.272432,29.5554 c -5.126123,-2.081067 -5.731051,-2.336782 -5.731051,-2.422618 0,-0.0841 0.633627,-0.385236 2.498353,-1.187344 l 1.152803,-0.495876 2.760146,1.107509 c 2.676602,1.073986 2.771433,1.103785 3.133029,0.984508 0.205085,-0.06764 1.471748,-0.565045 2.814807,-1.105326 l 2.441927,-0.982325 1.868823,0.812576 c 1.02785,0.446919 1.868732,0.840052 1.868622,0.873629 -10e-5,0.03359 -0.235581,0.156421 -0.523269,0.272985 -2.756196,1.116737 -8.539106,3.419633 -8.696052,3.462983 -0.124701,0.03444 -1.46835,-0.460126 -3.588138,-1.320701 z"
     id="path464" />
  <path
     style="fill:#b3b3b3;stroke:#000000;stroke-width:0.0996704;stroke-opacity:1"
     d="m 19.461888,26.052907 c -0.109637,-0.04853 -2.148493,-0.878365 -4.530791,-1.844069 -2.382298,-0.965704 -4.373883,-1.782051 -4.425746,-1.814102 -0.12029,-0.07434 0.459714,-0.367756 2.316455,-1.171831 l 1.485228,-0.643189 2.721442,1.104131 2.721443,1.104128 2.673455,-1.067962 c 2.065882,-0.825253 2.735342,-1.052909 2.94577,-1.001728 0.563941,0.137163 3.821555,1.578101 3.743073,1.655668 -0.09554,0.09445 -9.2602,3.78398 -9.374289,3.773946 -0.04218,-0.0038 -0.166402,-0.04645 -0.27604,-0.095 z"
     id="path503" />
  <path
     style="fill:#ff0000;stroke:#000000;stroke-width:0.0996704;stroke-opacity:1"
     d="m 19.162877,20.897165 c -1.156428,-0.449347 -7.551939,-3.028748 -8.012721,-3.231646 l -0.537433,-0.236648 1.334798,-0.58277 c 3.295408,-1.438768 7.338286,-3.181883 7.579927,-3.26814 0.226525,-0.08086 0.64526,0.06672 2.890443,1.018785 3.737956,1.585058 6.463503,2.79698 6.458914,2.871978 -0.0064,0.100673 -8.896211,3.603921 -9.1179,3.593041 -0.108524,-0.0054 -0.376752,-0.07939 -0.596028,-0.1646 z"
     id="path542" />
</svg>
