<?xml version="1.0" encoding="UTF-8" standalone="no"?>
<!-- Created with Inkscape (http://www.inkscape.org/) -->

<svg
   xmlns:dc="http://purl.org/dc/elements/1.1/"
   xmlns:cc="http://creativecommons.org/ns#"
   xmlns:rdf="http://www.w3.org/1999/02/22-rdf-syntax-ns#"
   xmlns:svg="http://www.w3.org/2000/svg"
   xmlns="http://www.w3.org/2000/svg"
   xmlns:sodipodi="http://sodipodi.sourceforge.net/DTD/sodipodi-0.dtd"
   xmlns:inkscape="http://www.inkscape.org/namespaces/inkscape"
   version="1.1"
   width="32"
   height="32"
   id="svg5692"
   inkscape:version="0.91 r13725"
   sodipodi:docname="pgversion-feature-info.svg"
   inkscape:export-filename="/home/hdus/dev/qgis/pgversion-plugin/pgversion/icons/pgversion-feature-info.png"
   inkscape:export-xdpi="83.333328"
   inkscape:export-ydpi="83.333328">
  <metadata
     id="metadata27">
    <rdf:RDF>
      <cc:Work
         rdf:about="">
        <dc:format>image/svg+xml</dc:format>
        <dc:type
           rdf:resource="http://purl.org/dc/dcmitype/StillImage" />
        <dc:title>PgVersion load</dc:title>
      </cc:Work>
    </rdf:RDF>
  </metadata>
  <sodipodi:namedview
     pagecolor="#ffffff"
     bordercolor="#666666"
     borderopacity="1"
     objecttolerance="10"
     gridtolerance="10"
     guidetolerance="10"
     inkscape:pageopacity="0"
     inkscape:pageshadow="2"
     inkscape:window-width="1161"
     inkscape:window-height="779"
     id="namedview25"
     showgrid="false"
     inkscape:zoom="8"
     inkscape:cx="-19.0625"
     inkscape:cy="16"
     inkscape:window-x="75"
     inkscape:window-y="34"
     inkscape:window-maximized="0"
     inkscape:current-layer="layer1" />
  <title
     id="title3096">PgVersion load</title>
  <defs
     id="defs5694">
    <inkscape:perspective
       sodipodi:type="inkscape:persp3d"
       inkscape:vp_x="0 : 16 : 1"
       inkscape:vp_y="0 : 1000 : 0"
       inkscape:vp_z="32 : 16 : 1"
       inkscape:persp3d-origin="16 : 10.666667 : 1"
       id="perspective29" />
  </defs>
  <g
     id="layer2"
     style="display:inline">
    <path
       d="m 6.5,17.5 c 6.811881,2.891089 15.514851,2.376238 19,0 l 0,5 -10,2 -9,-2 0,-5 z"
       id="path14788"
       style="color:#000000;fill:#ce5c00;fill-opacity:1;fill-rule:nonzero;stroke:none;stroke-width:1;marker:none;visibility:visible;display:inline;overflow:visible;enable-background:accumulate" />
    <path
       d="m 6.5,7.5 c 6.811881,2.891089 15.514851,2.376238 19,0 l 0,5 -10,2 -9,-2 0,-5 z"
       id="path3121"
       style="color:#000000;fill:#fcaf3e;fill-opacity:1;fill-rule:nonzero;stroke:none;stroke-width:1;marker:none;visibility:visible;display:inline;overflow:visible;enable-background:accumulate" />
    <path
       d="m 25.5,7.5 a 9.5,2 0 1 1 -19,0 9.5,2 0 1 1 19,0 z"
       id="path14757"
       style="color:#000000;fill:#fcaf3e;fill-opacity:1;fill-rule:nonzero;stroke:#888a85;stroke-width:1;stroke-linecap:square;stroke-linejoin:round;stroke-miterlimit:4;stroke-opacity:1;stroke-dasharray:none;stroke-dashoffset:0;marker:none;visibility:visible;display:inline;overflow:visible;enable-background:accumulate" />
    <path
       d="m 6.5,12.5 c 6.811881,2.891089 15.514851,2.376238 19,0 l 0,5 -10,1 -9,-1 0,-5 z"
       id="path3119"
       style="color:#000000;fill:#f57900;fill-opacity:1;fill-rule:nonzero;stroke:none;stroke-width:1;marker:none;visibility:visible;display:inline;overflow:visible;enable-background:accumulate" />
    <path
       d="m 6.5,7.5 0,15"
       id="path14767"
       style="color:#000000;fill:#729fcf;fill-opacity:0.78431373;fill-rule:nonzero;stroke:#888a85;stroke-width:1;stroke-linecap:round;stroke-linejoin:round;stroke-miterlimit:4;stroke-opacity:1;stroke-dasharray:none;stroke-dashoffset:0;marker:none;visibility:visible;display:inline;overflow:visible;enable-background:accumulate" />
    <path
       d="m 25.5,7.5 0,15"
       id="path14786"
       style="color:#000000;fill:#729fcf;fill-opacity:0.78431373;fill-rule:nonzero;stroke:#888a85;stroke-width:1;stroke-linecap:round;stroke-linejoin:round;stroke-miterlimit:4;stroke-opacity:1;stroke-dasharray:none;stroke-dashoffset:0;marker:none;visibility:visible;display:inline;overflow:visible;enable-background:accumulate" />
    <path
       d="m 6.5,12.5 c 6,3 13,3 19,0"
       id="path14836"
       style="fill:#fcaf3e;stroke:#888a85;stroke-width:1px;stroke-linecap:round;stroke-linejoin:round;stroke-opacity:1" />
    <path
       d="m 6.5,17.5 c 6,3 13,3 19,0"
       id="path14838"
       style="fill:#f57900;stroke:#888a85;stroke-width:1px;stroke-linecap:round;stroke-linejoin:round;stroke-opacity:1" />
    <path
       d="m 6.5,22.5 c 6,3 13,3 19,0"
       id="path14840"
       style="fill:#ce5c00;stroke:#888a85;stroke-width:1px;stroke-linecap:round;stroke-linejoin:round;stroke-opacity:1" />
    <path
       d="m 6.0695622,7.165215 c 0,0 -0.047827,13.573917 -0.047827,15.573917 3.5251728,2.182423 5.6326868,2.009567 5.6326868,2.009567 L 11.615088,9.1020812 C 10.475651,8.1212712 11.619842,6.1996533 17.452174,5.117389 15.409649,4.992041 7.0102811,4.640104 6.0695622,7.165215 z"
       id="path13973-2"
       style="opacity:0.2;fill:#fcffff;fill-rule:evenodd;stroke:none;display:inline" />
  </g>
  <g
     id="layer1"
     style="display:inline"
     transform="matrix(1.2019231,0,0,1.2019231,-6.4615385,-6.4615385)">
    <text
       x="-2.0594058"
       y="13.782178"
       id="text14718"
       xml:space="preserve"
       style="font-size:14px;font-style:normal;font-weight:normal;line-height:125%;letter-spacing:0px;word-spacing:0px;fill:#000000;fill-opacity:1;stroke:none;font-family:Sans"
       sodipodi:linespacing="125%"><tspan
         x="-2.0594058"
         y="13.782178"
         id="tspan14720" /></text>
    <rect
       width="12"
       height="12"
       rx="0.85714281"
       ry="0.85714281"
       x="19.5"
       y="19.5"
       id="rect15022-0"
       style="opacity:0.9;color:#000000;fill:#204a87;fill-opacity:1;fill-rule:nonzero;stroke:#204a87;stroke-width:1;stroke-linecap:square;stroke-linejoin:round;stroke-miterlimit:4;stroke-opacity:1;stroke-dasharray:none;stroke-dashoffset:0;marker:none;visibility:visible;display:inline;overflow:visible;enable-background:accumulate" />
    <path
       d="m 19.5,25.5 12,0 0,-4 c 0,-2 0,-2 -3,-2 -0.698149,0 -6.072237,0 -7,0 -2,0 -2,0 -2,2 0,1 0,2 0,4 z"
       id="path15024-9"
       style="opacity:0.3;fill:#fcffff;fill-rule:evenodd;stroke:none;display:inline;enable-background:new" />
    <text
       xml:space="preserve"
       style="font-style:normal;font-weight:normal;font-size:;line-height:125%;font-family:sans-serif;letter-spacing:0px;word-spacing:0px;baseline-shift:baseline;fill:#000000;fill-opacity:1;stroke:none;stroke-width:1px;stroke-linecap:butt;stroke-linejoin:miter;stroke-opacity:1;"
       x="24.199999"
       y="24.199999"
       id="text3354"
       sodipodi:linespacing="125%"><tspan
         sodipodi:role="line"
         id="tspan3356"
         x="24.199999"
         y="24.199999" /></text>
    <g
       id="g3366">
      <path
         id="path7"
         d="m 27.895011,29.010631 -0.205259,-0.204683 c -0.187048,-0.186759 -0.545244,-0.149754 -0.693264,0.07169 -0.0928,0.139057 -0.521825,0.583115 -0.792134,0.791845 0.03354,-0.138479 0.09772,-0.350101 0.21856,-0.693552 l 1.084125,-3.07776 c 0.254698,-0.728822 0.4085,-1.168832 0.4085,-1.544084 0,-0.593813 -0.437698,-0.977738 -1.114483,-0.977738 -1.709449,0 -3.047405,1.543795 -3.542633,2.206991 -0.0063,0.0084 -0.01214,0.01649 -0.01734,0.0237 -0.08528,0.09685 -0.11911,0.226077 -0.09252,0.358484 0.02053,0.102347 0.07661,0.201503 0.162474,0.287367 l 0.153801,0.153512 c 0.09194,0.09194 0.211332,0.142526 0.336513,0.142526 0.09338,0 0.233304,-0.02921 0.370914,-0.168257 l 0.02545,-0.02978 c 0.178375,-0.237639 0.511708,-0.596992 0.755419,-0.818153 -0.04192,0.142237 -0.101186,0.316854 -0.170859,0.517778 l -0.753683,2.196872 c -0.53686,1.552179 -0.737784,2.132982 -0.737784,2.456486 0,0.422952 0.270309,0.874527 1.028907,0.874527 2.357613,0 3.519795,-1.751368 3.647288,-1.955185 0.129806,-0.217403 0.104941,-0.434517 -0.07199,-0.612603 z"
         stroke-miterlimit="10"
         inkscape:connector-curvature="0"
         style="fill:#ffffff;stroke:#34497d;stroke-width:0.2891002;stroke-miterlimit:10" />
      <path
         id="path9"
         d="m 26.937512,19.849045 c -0.758021,0 -1.422662,0.656548 -1.422662,1.405316 0,0.853714 0.57184,1.405316 1.456776,1.405316 0.868746,0 1.54235,-0.801385 1.54235,-1.49089 2.89e-4,-0.608555 -0.412546,-1.319742 -1.576464,-1.319742 z"
         stroke-miterlimit="10"
         inkscape:connector-curvature="0"
         style="fill:#ffffff;stroke:#34497d;stroke-width:0.2891002;stroke-miterlimit:10" />
    </g>
  </g>
</svg>
