<?xml version="1.0" encoding="UTF-8" standalone="no"?>
<!-- Created with Inkscape (http://www.inkscape.org/) -->

<svg
   version="1.1"
   width="32"
   height="32"
   id="svg5692"
   inkscape:version="1.2.2 (b0a8486541, 2022-12-01)"
   sodipodi:docname="pgversion-clone_table.svg"
   inkscape:export-filename="/home/hdus/.qgis/python/plugins/pgversion/icons/pgversion-diff.png"
   inkscape:export-xdpi="86.921257"
   inkscape:export-ydpi="86.921257"
   xmlns:inkscape="http://www.inkscape.org/namespaces/inkscape"
   xmlns:sodipodi="http://sodipodi.sourceforge.net/DTD/sodipodi-0.dtd"
   xmlns="http://www.w3.org/2000/svg"
   xmlns:svg="http://www.w3.org/2000/svg"
   xmlns:rdf="http://www.w3.org/1999/02/22-rdf-syntax-ns#"
   xmlns:cc="http://creativecommons.org/ns#"
   xmlns:dc="http://purl.org/dc/elements/1.1/">
  <metadata
     id="metadata32">
    <rdf:RDF>
      <cc:Work
         rdf:about="">
        <dc:format>image/svg+xml</dc:format>
        <dc:type
           rdf:resource="http://purl.org/dc/dcmitype/StillImage" />
        <dc:title>PgVersion diff</dc:title>
      </cc:Work>
    </rdf:RDF>
  </metadata>
  <sodipodi:namedview
     pagecolor="#ffffff"
     bordercolor="#666666"
     borderopacity="1"
     objecttolerance="10"
     gridtolerance="10"
     guidetolerance="10"
     inkscape:pageopacity="0"
     inkscape:pageshadow="2"
     inkscape:window-width="1384"
     inkscape:window-height="831"
     id="namedview30"
     showgrid="false"
     inkscape:zoom="8"
     inkscape:cx="16"
     inkscape:cy="16.0625"
     inkscape:window-x="0"
     inkscape:window-y="0"
     inkscape:window-maximized="1"
     inkscape:current-layer="svg5692"
     inkscape:showpageshadow="2"
     inkscape:pagecheckerboard="0"
     inkscape:deskcolor="#d1d1d1" />
  <title
     id="title3096">PgVersion diff</title>
  <defs
     id="defs5694">
    <inkscape:perspective
       sodipodi:type="inkscape:persp3d"
       inkscape:vp_x="0 : 16 : 1"
       inkscape:vp_y="0 : 1000 : 0"
       inkscape:vp_z="32 : 16 : 1"
       inkscape:persp3d-origin="16 : 10.666667 : 1"
       id="perspective34" />
  </defs>
  <path
     d="m 12.370605,12.878906 c 6.811881,2.891089 15.514851,2.376238 19,0 v 5 l -10,2 -9,-2 z"
     id="path2883"
     style="color:#000000;display:inline;overflow:visible;visibility:visible;fill:#ce5c00;fill-opacity:1;fill-rule:nonzero;stroke:none;stroke-width:1;marker:none;enable-background:accumulate" />
  <path
     d="m 12.370605,2.8789058 c 6.811881,2.8910895 15.514851,2.3762385 19,0 v 5.0000003 l -10,2 -9,-2 z"
     id="path2885"
     style="color:#000000;display:inline;overflow:visible;visibility:visible;fill:#eeeeec;fill-opacity:1;fill-rule:nonzero;stroke:none;stroke-width:1;marker:none;enable-background:accumulate" />
  <path
     d="m 31.370605,2.8789058 a 9.5,2 0 1 1 -19,0 9.5,2 0 1 1 19,0 z"
     id="path2887"
     style="color:#000000;display:inline;overflow:visible;visibility:visible;fill:#eeeeec;fill-opacity:1;fill-rule:nonzero;stroke:#888a85;stroke-width:1;stroke-linecap:square;stroke-linejoin:round;stroke-miterlimit:4;stroke-dasharray:none;stroke-dashoffset:0;stroke-opacity:1;marker:none;enable-background:accumulate" />
  <path
     d="m 12.370605,7.8789061 c 6.811881,2.8910889 15.514851,2.3762379 19,0 v 4.9999999 l -10,1 -9,-1 z"
     id="path2889"
     style="color:#000000;display:inline;overflow:visible;visibility:visible;fill:#f57900;fill-opacity:1;fill-rule:nonzero;stroke:none;stroke-width:1;marker:none;enable-background:accumulate" />
  <path
     d="M 12.370605,2.8789058 V 17.878906"
     id="path2891"
     style="color:#000000;display:inline;overflow:visible;visibility:visible;fill:#729fcf;fill-opacity:0.784314;fill-rule:nonzero;stroke:#888a85;stroke-width:1;stroke-linecap:round;stroke-linejoin:round;stroke-miterlimit:4;stroke-dasharray:none;stroke-dashoffset:0;stroke-opacity:1;marker:none;enable-background:accumulate" />
  <path
     d="M 31.370605,2.8789058 V 17.878906"
     id="path2893"
     style="color:#000000;display:inline;overflow:visible;visibility:visible;fill:#729fcf;fill-opacity:0.784314;fill-rule:nonzero;stroke:#888a85;stroke-width:1;stroke-linecap:round;stroke-linejoin:round;stroke-miterlimit:4;stroke-dasharray:none;stroke-dashoffset:0;stroke-opacity:1;marker:none;enable-background:accumulate" />
  <path
     d="m 12.370605,7.8789061 c 6,2.9999999 13,2.9999999 19,0"
     id="path2895"
     style="fill:#eeeeec;stroke:#888a85;stroke-width:1px;stroke-linecap:round;stroke-linejoin:round;stroke-opacity:1" />
  <path
     d="m 12.370605,12.878906 c 6,3 13,3 19,0"
     id="path2897"
     style="fill:#f57900;stroke:#888a85;stroke-width:1px;stroke-linecap:round;stroke-linejoin:round;stroke-opacity:1" />
  <path
     d="m 12.370605,17.878906 c 6,3 13,3 19,0"
     id="path2899"
     style="fill:#ce5c00;stroke:#888a85;stroke-width:1px;stroke-linecap:round;stroke-linejoin:round;stroke-opacity:1" />
  <path
     d="m 11.940167,2.5441208 c 0,0 -0.04783,13.5739172 -0.04783,15.5739172 3.525173,2.182423 5.632687,2.009567 5.632687,2.009567 L 17.485694,4.4809873 C 16.346257,3.5001768 17.490494,1.5785588 23.32278,0.49629476 21.280254,0.37094676 12.880886,0.01900976 11.940167,2.5441208 Z"
     id="path2901"
     style="display:inline;opacity:0.2;fill:#fcffff;fill-rule:evenodd;stroke:none" />
  <g
     transform="translate(-5.6821289,6.7172852)"
     id="g2869">
    <path
       d="m 6.5,17.5 c 6.811881,2.891089 15.514851,2.376238 19,0 v 5 l -10,2 -9,-2 z"
       id="path14788"
       style="color:#000000;display:inline;overflow:visible;visibility:visible;fill:#ce5c00;fill-opacity:1;fill-rule:nonzero;stroke:none;stroke-width:1;marker:none;enable-background:accumulate" />
    <path
       d="m 6.5,7.5 c 6.811881,2.891089 15.514851,2.376238 19,0 v 5 l -10,2 -9,-2 z"
       id="path3121"
       style="color:#000000;display:inline;overflow:visible;visibility:visible;fill:#fcaf3e;fill-opacity:1;fill-rule:nonzero;stroke:none;stroke-width:1;marker:none;enable-background:accumulate" />
    <path
       d="m 25.5,7.5 a 9.5,2 0 1 1 -19,0 9.5,2 0 1 1 19,0 z"
       id="path14757"
       style="color:#000000;display:inline;overflow:visible;visibility:visible;fill:#fcaf3e;fill-opacity:1;fill-rule:nonzero;stroke:#888a85;stroke-width:1;stroke-linecap:square;stroke-linejoin:round;stroke-miterlimit:4;stroke-dasharray:none;stroke-dashoffset:0;stroke-opacity:1;marker:none;enable-background:accumulate" />
    <path
       d="m 6.5,12.5 c 6.811881,2.891089 15.514851,2.376238 19,0 v 5 l -10,1 -9,-1 z"
       id="path3119"
       style="color:#000000;display:inline;overflow:visible;visibility:visible;fill:#f57900;fill-opacity:1;fill-rule:nonzero;stroke:none;stroke-width:1;marker:none;enable-background:accumulate" />
    <path
       d="m 6.5,7.5 v 15"
       id="path14767"
       style="color:#000000;display:inline;overflow:visible;visibility:visible;fill:#729fcf;fill-opacity:0.784314;fill-rule:nonzero;stroke:#888a85;stroke-width:1;stroke-linecap:round;stroke-linejoin:round;stroke-miterlimit:4;stroke-dasharray:none;stroke-dashoffset:0;stroke-opacity:1;marker:none;enable-background:accumulate" />
    <path
       d="m 25.5,7.5 v 15"
       id="path14786"
       style="color:#000000;display:inline;overflow:visible;visibility:visible;fill:#729fcf;fill-opacity:0.784314;fill-rule:nonzero;stroke:#888a85;stroke-width:1;stroke-linecap:round;stroke-linejoin:round;stroke-miterlimit:4;stroke-dasharray:none;stroke-dashoffset:0;stroke-opacity:1;marker:none;enable-background:accumulate" />
    <path
       d="m 6.5,12.5 c 6,3 13,3 19,0"
       id="path14836"
       style="fill:#fcaf3e;stroke:#888a85;stroke-width:1px;stroke-linecap:round;stroke-linejoin:round;stroke-opacity:1" />
    <path
       d="m 6.5,17.5 c 6,3 13,3 19,0"
       id="path14838"
       style="fill:#f57900;stroke:#888a85;stroke-width:1px;stroke-linecap:round;stroke-linejoin:round;stroke-opacity:1" />
    <path
       d="m 6.5,22.5 c 6,3 13,3 19,0"
       id="path14840"
       style="fill:#ce5c00;stroke:#888a85;stroke-width:1px;stroke-linecap:round;stroke-linejoin:round;stroke-opacity:1" />
    <path
       d="m 6.0695622,7.165215 c 0,0 -0.047827,13.573917 -0.047827,15.573917 3.5251728,2.182423 5.6326868,2.009567 5.6326868,2.009567 L 11.615088,9.1020812 C 10.475651,8.1212712 11.619842,6.1996533 17.452174,5.117389 15.409649,4.992041 7.0102811,4.640104 6.0695622,7.165215 Z"
       id="path13973-2"
       style="display:inline;opacity:0.2;fill:#fcffff;fill-rule:evenodd;stroke:none" />
  </g>
  <g
     id="layer1"
     style="display:inline">
    <text
       x="-2.0594058"
       y="13.782178"
       id="text14718"
       xml:space="preserve"
       style="font-style:normal;font-weight:normal;font-size:14px;line-height:0%;font-family:sans-serif;letter-spacing:0px;word-spacing:0px;fill:#000000;fill-opacity:1;stroke:none"><tspan
         x="-2.0594058"
         y="13.782178"
         id="tspan14720"
         style="font-family:sans-serif" /></text>
  </g>
</svg>
